<svg xmlns="http://www.w3.org/2000/svg" viewBox="0 0 800 800">
<g transform="translate(0,10)">
  <!-- dots -->
  <g fill="#C89B4D">
    <circle cx="400" cy="70" r="9"/>
    <circle cx="400" cy="103" r="7"/>
    <circle cx="400" cy="132" r="5"/>
    <circle cx="400" cy="160" r="4"/>
    <circle cx="400" cy="188" r="3"/>
    <circle cx="400" cy="215" r="2.5"/>
  </g>

  <!-- moon: single, softer outer crescent -->
  <g fill="none" stroke="#7D63A8" stroke-width="5" stroke-linecap="round" stroke-linejoin="round">
    <path d="M360 180
             C292 212 250 286 250 354
             C250 452 326 520 420 520
             C506 520 578 465 610 365
             C590 415 548 452 495 466
             C427 484 360 458 326 404
             C279 330 294 235 360 180Z"/>
  </g>

  <!-- star -->
  <path fill="#C89B4D"
    d="M400 255
       C408 278 420 290 445 298
       C420 306 408 318 400 345
       C392 318 380 306 355 298
       C380 290 392 278 400 255Z"/>

  <!-- rays: separated from the moon -->
  <g stroke="#C89B4D" stroke-width="3" stroke-linecap="round">
    <line x1="398" y1="545" x2="398" y2="590"/>
    <line x1="342" y1="535" x2="320" y2="575"/>
    <line x1="458" y1="535" x2="480" y2="575"/>
    <line x1="286" y1="515" x2="255" y2="555"/>
    <line x1="514" y1="515" x2="545" y2="555"/>
    <line x1="225" y1="485" x2="185" y2="505"/>
    <line x1="575" y1="485" x2="615" y2="505"/>
    <line x1="175" y1="455" x2="120" y2="455"/>
    <line x1="625" y1="455" x2="680" y2="455"/>
  </g>

  <g fill="#C89B4D">
    <circle cx="398" cy="615" r="8"/>
    <circle cx="398" cy="640" r="5"/>
    <circle cx="320" cy="590" r="3"/>
    <circle cx="300" cy="610" r="3"/>
    <circle cx="480" cy="590" r="3"/>
    <circle cx="500" cy="610" r="3"/>
    <circle cx="205" cy="505" r="3"/>
    <circle cx="185" cy="495" r="3"/>
    <circle cx="595" cy="505" r="3"/>
    <circle cx="615" cy="495" r="3"/>
    <circle cx="135" cy="455" r="3"/>
    <circle cx="110" cy="448" r="3"/>
    <circle cx="665" cy="455" r="3"/>
    <circle cx="690" cy="448" r="3"/>
  </g>
</g>
</svg>